<?xml version="1.0" standalone="no"?>
<!DOCTYPE svg PUBLIC "-//W3C//DTD SVG 20010904//EN"
 "http://www.w3.org/TR/2001/REC-SVG-20010904/DTD/svg10.dtd">
<svg version="1.0" xmlns="http://www.w3.org/2000/svg"
 width="512.000000pt" height="512.000000pt" viewBox="0 0 512.000000 512.000000"
 preserveAspectRatio="xMidYMid meet">
<metadata>
Created by potrace 1.11, written by Peter Selinger 2001-2013
</metadata>
<g transform="translate(0.000000,512.000000) scale(0.100000,-0.100000)"
fill="#000000" stroke="none">
<path d="M2358 3650 c-177 -30 -338 -133 -435 -278 -47 -72 -96 -200 -120
-317 -16 -78 -18 -139 -17 -455 0 -345 7 -455 29 -455 7 0 309 406 423 569 26
37 27 46 33 195 5 122 11 169 27 215 26 70 62 120 104 142 44 23 143 22 187 0
40 -21 26 -36 166 158 118 164 117 152 25 187 -112 43 -296 60 -422 39z"/>
<path d="M4045 3653 c-137 -19 -279 -88 -369 -178 -100 -101 -161 -220 -199
-389 -36 -165 -35 -887 2 -954 6 -11 65 63 229 289 l221 304 1 90 c1 255 48
402 143 452 48 24 146 22 192 -6 36 -21 38 -21 50 -4 7 10 61 83 119 163 119
163 118 153 17 191 -106 40 -285 59 -406 42z"/>
<path d="M675 3475 l-440 -153 -3 -185 -2 -185 202 59 c112 33 215 63 231 69
l27 9 0 -755 0 -754 245 0 245 0 0 1025 0 1025 -32 -1 c-18 -1 -231 -70 -473
-154z"/>
<path d="M4619 2858 l-214 -293 -6 -205 c-6 -223 -21 -296 -75 -368 -65 -85
-205 -94 -290 -20 -34 30 -36 30 -49 12 -7 -10 -61 -84 -119 -164 -58 -80
-106 -148 -106 -152 0 -14 92 -61 168 -85 104 -34 291 -43 407 -19 237 48 415
213 494 456 47 146 55 234 55 585 0 269 -3 347 -17 424 -10 51 -21 100 -25
108 -6 10 -69 -69 -223 -279z"/>
<path d="M2948 2838 l-218 -301 0 -166 c0 -235 -27 -343 -100 -404 -71 -60
-188 -61 -259 -2 -16 14 -31 25 -34 25 -8 0 -237 -318 -237 -329 0 -14 116
-68 190 -88 49 -14 102 -18 220 -18 143 1 161 3 235 29 104 36 177 81 247 153
104 107 160 219 199 403 22 98 23 129 24 455 0 299 -3 364 -18 448 -11 53 -22
97 -25 97 -4 -1 -105 -136 -224 -302z"/>
</g>
</svg>
